<mxfile host="app.diagrams.net" modified="2020-08-07T10:54:42.977Z" agent="5.0 (Macintosh; Intel Mac OS X 10_15_6) AppleWebKit/605.1.15 (KHTML, like Gecko) Version/13.1.2 Safari/605.1.15" etag="e_U1Uo4va6jpGqh1lbj-" version="13.6.0" type="github">
  <diagram id="omB23WNYtrH4AIbexvp6" name="Page-1">
    <mxGraphModel dx="946" dy="1894" grid="1" gridSize="10" guides="1" tooltips="1" connect="1" arrows="1" fold="1" page="1" pageScale="1" pageWidth="827" pageHeight="1169" math="0" shadow="0">
      <root>
        <mxCell id="0" />
        <mxCell id="1" parent="0" />
        <mxCell id="4XcO50tT1eMsiWtGNrK--1" value="Questions" style="rounded=1;whiteSpace=wrap;html=1;" vertex="1" parent="1">
          <mxGeometry x="240" y="80" width="120" height="80" as="geometry" />
        </mxCell>
        <mxCell id="4XcO50tT1eMsiWtGNrK--3" value="question" style="ellipse;whiteSpace=wrap;html=1;" vertex="1" parent="1">
          <mxGeometry x="40" y="-40" width="120" height="80" as="geometry" />
        </mxCell>
        <mxCell id="4XcO50tT1eMsiWtGNrK--5" value="&lt;u&gt;identity&lt;/u&gt;" style="ellipse;whiteSpace=wrap;html=1;" vertex="1" parent="1">
          <mxGeometry x="240" y="-40" width="120" height="80" as="geometry" />
        </mxCell>
        <mxCell id="4XcO50tT1eMsiWtGNrK--7" value="" style="endArrow=classic;html=1;entryX=0.5;entryY=1;entryDx=0;entryDy=0;exitX=0;exitY=0.5;exitDx=0;exitDy=0;" edge="1" parent="1" source="4XcO50tT1eMsiWtGNrK--1" target="4XcO50tT1eMsiWtGNrK--3">
          <mxGeometry width="50" height="50" relative="1" as="geometry">
            <mxPoint x="40" y="190" as="sourcePoint" />
            <mxPoint x="90" y="140" as="targetPoint" />
          </mxGeometry>
        </mxCell>
        <mxCell id="4XcO50tT1eMsiWtGNrK--8" value="" style="endArrow=classic;html=1;entryX=0.5;entryY=1;entryDx=0;entryDy=0;exitX=0.5;exitY=0;exitDx=0;exitDy=0;" edge="1" parent="1" source="4XcO50tT1eMsiWtGNrK--1" target="4XcO50tT1eMsiWtGNrK--5">
          <mxGeometry width="50" height="50" relative="1" as="geometry">
            <mxPoint x="390" y="290" as="sourcePoint" />
            <mxPoint x="440" y="240" as="targetPoint" />
          </mxGeometry>
        </mxCell>
        <mxCell id="4XcO50tT1eMsiWtGNrK--9" value="Answers" style="rounded=1;whiteSpace=wrap;html=1;" vertex="1" parent="1">
          <mxGeometry x="440" y="80" width="120" height="80" as="geometry" />
        </mxCell>
        <mxCell id="4XcO50tT1eMsiWtGNrK--10" value="&lt;u&gt;answer&lt;/u&gt;" style="ellipse;whiteSpace=wrap;html=1;" vertex="1" parent="1">
          <mxGeometry x="440" y="-40" width="120" height="80" as="geometry" />
        </mxCell>
        <mxCell id="4XcO50tT1eMsiWtGNrK--11" value="" style="endArrow=classic;html=1;entryX=0.5;entryY=1;entryDx=0;entryDy=0;exitX=0.5;exitY=0;exitDx=0;exitDy=0;" edge="1" parent="1" source="4XcO50tT1eMsiWtGNrK--9" target="4XcO50tT1eMsiWtGNrK--10">
          <mxGeometry width="50" height="50" relative="1" as="geometry">
            <mxPoint x="390" y="290" as="sourcePoint" />
            <mxPoint x="440" y="240" as="targetPoint" />
          </mxGeometry>
        </mxCell>
        <mxCell id="4XcO50tT1eMsiWtGNrK--12" value="&lt;u&gt;identity&lt;/u&gt;" style="ellipse;whiteSpace=wrap;html=1;" vertex="1" parent="1">
          <mxGeometry x="640" y="-40" width="120" height="80" as="geometry" />
        </mxCell>
        <mxCell id="4XcO50tT1eMsiWtGNrK--13" value="" style="endArrow=classic;html=1;entryX=0.5;entryY=1;entryDx=0;entryDy=0;exitX=1;exitY=0.5;exitDx=0;exitDy=0;" edge="1" parent="1" source="4XcO50tT1eMsiWtGNrK--9" target="4XcO50tT1eMsiWtGNrK--12">
          <mxGeometry width="50" height="50" relative="1" as="geometry">
            <mxPoint x="390" y="290" as="sourcePoint" />
            <mxPoint x="440" y="240" as="targetPoint" />
          </mxGeometry>
        </mxCell>
        <mxCell id="4XcO50tT1eMsiWtGNrK--14" value="Correct" style="rounded=1;whiteSpace=wrap;html=1;" vertex="1" parent="1">
          <mxGeometry x="320" y="200" width="120" height="80" as="geometry" />
        </mxCell>
        <mxCell id="4XcO50tT1eMsiWtGNrK--15" value="&lt;u&gt;identity&lt;/u&gt;" style="ellipse;whiteSpace=wrap;html=1;" vertex="1" parent="1">
          <mxGeometry x="160" y="280" width="120" height="80" as="geometry" />
        </mxCell>
        <mxCell id="4XcO50tT1eMsiWtGNrK--16" value="&lt;u&gt;answer&lt;/u&gt;" style="ellipse;whiteSpace=wrap;html=1;" vertex="1" parent="1">
          <mxGeometry x="480" y="280" width="120" height="80" as="geometry" />
        </mxCell>
        <mxCell id="4XcO50tT1eMsiWtGNrK--17" value="" style="endArrow=classic;html=1;exitX=0;exitY=0.5;exitDx=0;exitDy=0;entryX=0.5;entryY=0;entryDx=0;entryDy=0;" edge="1" parent="1" source="4XcO50tT1eMsiWtGNrK--14" target="4XcO50tT1eMsiWtGNrK--15">
          <mxGeometry width="50" height="50" relative="1" as="geometry">
            <mxPoint x="390" y="290" as="sourcePoint" />
            <mxPoint x="440" y="240" as="targetPoint" />
          </mxGeometry>
        </mxCell>
        <mxCell id="4XcO50tT1eMsiWtGNrK--18" value="" style="endArrow=classic;html=1;exitX=1;exitY=0.5;exitDx=0;exitDy=0;entryX=0.5;entryY=0;entryDx=0;entryDy=0;" edge="1" parent="1" source="4XcO50tT1eMsiWtGNrK--14" target="4XcO50tT1eMsiWtGNrK--16">
          <mxGeometry width="50" height="50" relative="1" as="geometry">
            <mxPoint x="390" y="290" as="sourcePoint" />
            <mxPoint x="440" y="240" as="targetPoint" />
          </mxGeometry>
        </mxCell>
        <mxCell id="4XcO50tT1eMsiWtGNrK--19" value="" style="endArrow=none;html=1;exitX=1;exitY=0.5;exitDx=0;exitDy=0;entryX=0;entryY=0.5;entryDx=0;entryDy=0;strokeWidth=6;" edge="1" parent="1" source="4XcO50tT1eMsiWtGNrK--1" target="4XcO50tT1eMsiWtGNrK--9">
          <mxGeometry width="50" height="50" relative="1" as="geometry">
            <mxPoint x="390" y="210" as="sourcePoint" />
            <mxPoint x="440" y="160" as="targetPoint" />
          </mxGeometry>
        </mxCell>
        <mxCell id="4XcO50tT1eMsiWtGNrK--20" value="" style="endArrow=none;html=1;entryX=0.5;entryY=1;entryDx=0;entryDy=0;exitX=1;exitY=0.25;exitDx=0;exitDy=0;strokeWidth=5;" edge="1" parent="1" source="4XcO50tT1eMsiWtGNrK--14" target="4XcO50tT1eMsiWtGNrK--9">
          <mxGeometry width="50" height="50" relative="1" as="geometry">
            <mxPoint x="390" y="210" as="sourcePoint" />
            <mxPoint x="440" y="160" as="targetPoint" />
            <Array as="points">
              <mxPoint x="500" y="220" />
            </Array>
          </mxGeometry>
        </mxCell>
      </root>
    </mxGraphModel>
  </diagram>
</mxfile>
